<?xml version="1.0" encoding="UTF-8" standalone="no"?>
<!DOCTYPE svg PUBLIC "-//W3C//DTD SVG 1.1//EN" "http://www.w3.org/Graphics/SVG/1.1/DTD/svg11.dtd">
<svg width="100%" height="100%" viewBox="0 0 6824 639" version="1.1" xmlns="http://www.w3.org/2000/svg" xmlns:xlink="http://www.w3.org/1999/xlink" xml:space="preserve" xmlns:serif="http://www.serif.com/" style="fill-rule:evenodd;clip-rule:evenodd;stroke-linejoin:round;stroke-miterlimit:2;">
    <g transform="matrix(1,0,0,1,-149.583,-147.5)">
        <g id="Layer-1" serif:id="Layer 1" transform="matrix(4.16667,0,0,4.16667,0,0)">
            <g transform="matrix(1,0,0,1,93.8,44.6)">
                <path d="M0,134.7L0,116.4L-15.8,107.2L-31.6,116.4L-31.6,134.7L-15.8,143.9L0,134.7ZM0,48.9L-15.8,58.1L-31.6,48.9L-31.6,30.6L-15.8,40L0,30.6L0,48.9ZM26.3,64.1L26.3,15.3L-15.8,-9.2L-57.9,15.3L-57.9,64.1L-15.8,88.6L26.3,64.1Z" style="fill:rgb(255,255,255);fill-rule:nonzero;"/>
            </g>
            <g transform="matrix(1,0,0,1,180.4,188.4)">
                <path d="M0,-152.5L30.6,-152.5L53.8,-57L76.9,-152.5L107.4,-152.5L107.4,0L83.3,0L83.3,-92.7L59.9,0L47.5,0L24.1,-92.7L24.1,0L0,0L0,-152.5Z" style="fill:rgb(255, 255, 255);fill-rule:nonzero;"/>
            </g>
            <g transform="matrix(1,0,0,1,314.6,188.6)">
                <path d="M0,-152.7L71.4,-152.7L71.4,-130.2L26.5,-130.2L26.5,-87.5L68.7,-87.5L68.7,-65.2L26.5,-65.2L26.5,-22.5L71.4,-22.5L71.4,0L0,0L0,-152.7Z" style="fill:rgb(255,255,255);fill-rule:nonzero;"/>
            </g>
            <g transform="matrix(1,0,0,1,450.9,56.6)">
                <path d="M0,111.1C14.7,111.1 20.2,105.4 20.2,87.9L20.2,23.3C20.2,5.7 14.6,0.1 -0.2,0.1L-14.7,0.1L-14.7,111.1L0,111.1ZM-41.2,-20.7L-0.3,-20.7C33.2,-20.7 47.3,-8.4 47.3,27.6L47.3,83.5C47.3,119.2 33.2,131.8 -0.3,131.8L-41.2,131.8L-41.2,-20.7Z" style="fill:rgb(255,255,255);fill-rule:nonzero;"/>
            </g>
            <g transform="matrix(1,0,0,1,518.2,59.7)">
                <path d="M0,105L9.8,105L9.8,0L0,0L0,-23.8L46,-23.8L46,0L36.4,0L36.4,105L46,105L46,128.8L0,128.8L0,105Z" style="fill:rgb(255,255,255);fill-rule:nonzero;"/>
            </g>
            <g transform="matrix(1,0,0,1,641.4,84.7)">
                <path d="M0,54.9L-11.9,-20.6L-12.5,-23.6L-13.3,-20.6L-25.2,54.9L0,54.9ZM-30.7,-48.8L5.8,-48.8L34.8,103.7L7.5,103.7L3.3,77.3L-28.5,77.3L-32.6,103.7L-59.7,103.7L-30.7,-48.8Z" style="fill:rgb(255,255,255);fill-rule:nonzero;"/>
            </g>
            <g transform="matrix(1,0,0,1,744.4,188.5)">
                <path d="M0,-152.6L26.6,-152.6L26.6,-22.5L71.8,-22.5L71.8,0L0,0L0,-152.6Z" style="fill:rgb(255,255,255);fill-rule:nonzero;"/>
            </g>
            <g transform="matrix(1,0,0,1,892.5,84.7)">
                <path d="M0,54.9L-11.9,-20.6L-12.5,-23.6L-13.3,-20.6L-25.2,54.9L0,54.9ZM-30.8,-48.8L5.8,-48.8L34.8,103.7L7.5,103.7L3.4,77.3L-28.5,77.3L-32.7,103.7L-59.8,103.7L-30.8,-48.8Z" style="fill:rgb(255,255,255);fill-rule:nonzero;"/>
            </g>
            <g transform="matrix(1,0,0,1,990.8,58.5)">
                <path d="M0,107.5C12.4,107.5 16,103.9 16,91.1L16,78.8C16,66.7 11.3,62.2 0,62.2L-18.1,62.2L-18.1,107.5L0,107.5ZM-1,39.7C8.2,39.7 13.9,36.9 13.9,24.6L13.9,14.4C13.9,2.3 9.2,-0.1 -0.8,-0.1L-18.1,-0.1L-18.1,39.7L-1,39.7ZM-44.8,-22.6L1.8,-22.6C29.9,-22.6 41,-8.1 41,15.4L41,19.2C41,36.4 33.8,45.1 22.5,49.6C34.9,54.1 43.2,64.5 43.2,83.4L43.2,87.2C43.2,115.9 32.3,130.1 3.1,130.1L-44.8,130.1L-44.8,-22.6Z" style="fill:rgb(255,255,255);fill-rule:nonzero;"/>
            </g>
            <g transform="matrix(1,0,0,1,1140.9,47.3)">
                <path d="M0,129.4C22.2,129.4 27.9,123.7 27.9,102L27.9,93.9C27.9,73.9 19.2,65.8 -0.3,65.8L-24.6,65.8L-24.6,129.4L0.1,129.4L0,129.4ZM-1.5,54.3C11.9,54.3 23.9,50.7 23.9,29.9L23.9,22.7C23.9,1.9 15.4,-0.1 -1.1,-0.1L-24.7,-0.1L-24.7,54.3L-1.5,54.3M-38.5,-11.6L0.5,-11.6C25.5,-11.6 37.8,-3.3 37.8,23.1L37.8,28.8C37.8,46.4 29.7,55 19.7,59.2C31.9,63.2 41.7,73 41.7,95.1L41.7,101.3C41.7,130.4 30.4,141 1.2,141L-38.5,141L-38.5,-11.6Z" style="fill:rgb(255,255,255);fill-rule:nonzero;"/>
            </g>
            <g transform="matrix(1,0,0,1,1257.7,80.4)">
                <path d="M0,63.1L-18.8,-30L-19,-30.6L-19,-30.4L-37.8,63.1L0.1,63.1L0,63.1ZM-28.3,-44.7L-9.6,-44.7L23.2,107.8L9.1,107.8L2.3,74.6L-40.1,74.6L-46.9,107.8L-61,107.8L-28.2,-44.7L-28.3,-44.7Z" style="fill:rgb(255,255,255);fill-rule:nonzero;"/>
            </g>
            <g transform="matrix(1,0,0,1,1318.1,89.1)">
                <path d="M0,45.7L-36.1,-53.4L-21.6,-53.4L6.8,28.7L35.2,-53.4L49.8,-53.4L13.6,45.7L13.6,99.1L-0.2,99.1L-0.2,45.7L0,45.7Z" style="fill:rgb(255,255,255);fill-rule:nonzero;"/>
            </g>
            <g transform="matrix(1,0,0,1,1387.6,188.2)">
                <path d="M-0.1,-152.5L66.7,-152.5L66.7,-141L13.8,-141L13.8,-81.9L64.4,-81.9L64.4,-70.6L13.7,-70.6L13.7,-11.5L66.6,-11.5L66.6,0L-0.1,0L-0.1,-152.5Z" style="fill:rgb(255,255,255);fill-rule:nonzero;"/>
            </g>
            <g transform="matrix(1,0,0,1,1519.7,115.2)">
                <path d="M0,-6.4C21.5,-6.4 28.4,-16.2 28.4,-34.9L28.4,-41.3C28.4,-65.5 19.9,-68.3 -0.6,-68.3L-23.4,-68.3L-23.4,-6.4L0,-6.4ZM28,59.5L28,31.2C28,6.8 11.4,4.8 -0.1,4.8L-23.4,4.8L-23.4,73.1L-37.2,73.1L-37.2,-79.5L-0.1,-79.5C30.8,-79.5 42.3,-70.6 42.3,-40.4L42.3,-37.6C42.3,-19.5 37.2,-7.2 20.6,-1.4C34.9,3.3 41.9,14.1 41.9,31.6L41.9,59.4C41.9,64.9 42.1,70.5 44,73L30.3,73C28.2,70.8 28,65.1 28,59.4L28,59.5Z" style="fill:rgb(255,255,255);fill-rule:nonzero;"/>
            </g>
            <g transform="matrix(1,0,0,1,1592.4,188.2)">
                <path d="M0,-152.5L13.2,-152.5L68.4,-30.9L68.4,-152.5L81.2,-152.5L81.2,0L68,0L12.8,-121.6L12.8,0L0,0L0,-152.5Z" style="fill:rgb(255,255,255);fill-rule:nonzero;"/>
            </g>
        </g>
    </g>
</svg>
