<?xml version="1.0" encoding="UTF-8" standalone="no"?>
<!DOCTYPE svg PUBLIC "-//W3C//DTD SVG 1.1//EN" "http://www.w3.org/Graphics/SVG/1.1/DTD/svg11.dtd">
<svg width="100%" height="100%" viewBox="0 0 2265 1270" version="1.1" xmlns="http://www.w3.org/2000/svg" xmlns:xlink="http://www.w3.org/1999/xlink" xml:space="preserve" xmlns:serif="http://www.serif.com/" style="fill-rule:evenodd;clip-rule:evenodd;stroke-linejoin:round;stroke-miterlimit:2;">
    <g transform="matrix(1,0,0,1,-97.8079,-1117.65)">
        <g id="Layer-1" serif:id="Layer 1" transform="matrix(4.16667,0,0,4.16667,0,0)">
            <g transform="matrix(1,0,0,1,138.833,286.586)">
                <path d="M0,268.069L0,231.626L-31.45,213.275L-62.9,231.626L-62.9,268.069L-31.45,286.42L0,268.069ZM0,97.268L-31.45,115.554L-62.9,97.268L-62.9,60.825L-31.45,79.63L0,60.825L0,97.268ZM52.46,127.615L52.46,30.413L-31.45,-18.351L-115.359,30.413L-115.359,127.615L-31.45,176.443L52.46,127.615Z" style="fill:rgb(7,110,127);fill-rule:nonzero;"/>
            </g>
            <g transform="matrix(1,0,0,1,238.629,356.295)">
                <path d="M0,-87.411L17.638,-87.411L30.931,-32.682L44.224,-87.411L61.732,-87.411L61.732,0L47.856,0L47.856,-53.108L34.433,0L27.3,0L13.877,-53.108L13.877,0L0,0L0,-87.411Z" style="fill:rgb(7,110,127);fill-rule:nonzero;"/>
            </g>
            <g transform="matrix(1,0,0,1,315.859,356.36)">
                <path d="M0,-87.476L41.047,-87.476L41.047,-74.572L15.303,-74.572L15.303,-50.125L39.555,-50.125L39.555,-37.351L15.303,-37.351L15.303,-12.904L41.047,-12.904L41.047,0L0,0L0,-87.476Z" style="fill:rgb(7,110,127);fill-rule:nonzero;"/>
            </g>
            <g transform="matrix(1,0,0,1,394.257,280.751)">
                <path d="M0,63.677C8.43,63.677 11.607,60.435 11.607,50.384L11.607,13.357C11.607,3.306 8.365,0.064 -0.065,0.064L-8.43,0.064L-8.43,63.677L0,63.677ZM-23.668,-11.867L-0.195,-11.867C19.064,-11.867 27.17,-4.864 27.17,15.821L27.17,47.855C27.17,68.281 19.064,75.544 -0.195,75.544L-23.668,75.544L-23.668,-11.867Z" style="fill:rgb(7,110,127);fill-rule:nonzero;"/>
            </g>
            <g transform="matrix(1,0,0,1,432.904,282.501)">
                <path d="M0,60.176L5.642,60.176L5.642,0L0,0L0,-13.617L26.392,-13.617L26.392,0L20.88,0L20.88,60.176L26.392,60.176L26.392,73.793L0,73.793L0,60.176Z" style="fill:rgb(7,110,127);fill-rule:nonzero;"/>
            </g>
            <g transform="matrix(1,0,0,1,503.715,296.897)">
                <path d="M0,31.385L-6.809,-11.931L-7.133,-13.682L-7.587,-11.931L-14.396,31.385L0,31.385ZM-17.638,-28.013L3.372,-28.013L20.037,59.398L4.345,59.398L1.945,44.289L-16.341,44.289L-18.675,59.398L-34.238,59.398L-17.638,-28.013Z" style="fill:rgb(7,110,127);fill-rule:nonzero;"/>
            </g>
            <g transform="matrix(1,0,0,1,238.824,464.197)">
                <path d="M0,-87.476L15.239,-87.476L15.239,-12.904L41.241,-12.904L41.241,0L0,0L0,-87.476Z" style="fill:rgb(7,110,127);fill-rule:nonzero;"/>
            </g>
            <g transform="matrix(1,0,0,1,323.965,404.734)">
                <path d="M0,31.385L-6.809,-11.931L-7.133,-13.682L-7.587,-11.931L-14.396,31.385L0,31.385ZM-17.638,-28.013L3.372,-28.013L20.037,59.398L4.345,59.398L1.945,44.224L-16.341,44.224L-18.74,59.398L-34.303,59.398L-17.638,-28.013Z" style="fill:rgb(7,110,127);fill-rule:nonzero;"/>
            </g>
            <g transform="matrix(1,0,0,1,380.445,389.559)">
                <path d="M0,61.733C7.133,61.733 9.208,59.658 9.208,52.331L9.208,45.327C9.208,38.389 6.484,35.795 0,35.795L-10.375,35.795L-10.375,61.733L0,61.733ZM-0.519,22.891C4.798,22.891 8.041,21.27 8.041,14.202L8.041,8.366C8.041,1.427 5.317,0.001 -0.389,0.001L-10.375,0.001L-10.375,22.826L-0.519,22.826L-0.519,22.891ZM-25.679,-12.839L1.102,-12.839C17.249,-12.839 23.604,-4.474 23.604,8.884L23.604,11.024C23.604,20.881 19.518,25.874 12.969,28.468C20.102,31.061 24.9,37.027 24.9,47.856L24.9,49.996C24.9,66.467 18.61,74.572 1.816,74.572L-25.679,74.572L-25.679,-12.839Z" style="fill:rgb(7,110,127);fill-rule:nonzero;"/>
            </g>
            <g transform="matrix(1,0,0,1,260.741,491.561)">
                <path d="M0,74.183C12.774,74.183 16.017,70.941 16.017,58.491L16.017,53.887C16.017,42.409 11.024,37.74 -0.195,37.74L-14.136,37.74L-14.136,74.183L0.065,74.183L0,74.183ZM-0.843,31.126C6.874,31.126 13.747,29.051 13.747,17.184L13.747,13.034C13.747,1.103 8.884,-0.064 -0.648,-0.064L-14.201,-0.064L-14.201,31.126L-0.843,31.126ZM-22.047,-6.614L0.389,-6.614C14.785,-6.614 21.853,-1.88 21.853,13.294L21.853,16.536C21.853,26.587 17.184,31.58 11.478,33.979C18.546,36.249 24.122,41.89 24.122,54.535L24.122,58.101C24.122,74.767 17.638,80.797 0.843,80.797L-22.047,80.797L-22.047,-6.614Z" style="fill:rgb(7,110,127);fill-rule:nonzero;"/>
            </g>
            <g transform="matrix(1,0,0,1,327.856,510.626)">
                <path d="M0,36.053L-10.764,-17.314L-10.894,-17.639L-10.894,-17.509L-21.723,36.053L0,36.053ZM-16.211,-25.679L-5.512,-25.679L13.293,61.732L5.188,61.732L1.297,42.667L-23.085,42.667L-26.975,61.732L-35.081,61.732L-16.211,-25.679Z" style="fill:rgb(7,110,127);fill-rule:nonzero;"/>
            </g>
            <g transform="matrix(1,0,0,1,362.677,515.554)">
                <path d="M0,26.197L-20.815,-30.607L-12.45,-30.607L3.891,16.47L20.232,-30.607L28.661,-30.607L7.846,26.197L7.846,56.804L-0.065,56.804L-0.065,26.197L0,26.197Z" style="fill:rgb(7,110,127);fill-rule:nonzero;"/>
            </g>
            <g transform="matrix(1,0,0,1,402.622,572.358)">
                <path d="M0,-87.411L38.323,-87.411L38.323,-80.797L7.911,-80.797L7.911,-46.948L37.026,-46.948L37.026,-40.463L7.911,-40.463L7.911,-6.614L38.323,-6.614L38.323,0L0,0L0,-87.411Z" style="fill:rgb(7,110,127);fill-rule:nonzero;"/>
            </g>
            <g transform="matrix(1,0,0,1,478.555,530.533)">
                <path d="M0,-3.761C12.321,-3.761 16.341,-9.403 16.341,-20.102L16.341,-23.798C16.341,-37.675 11.478,-39.296 -0.324,-39.296L-13.423,-39.296L-13.423,-3.826L0,-3.826L0,-3.761ZM16.082,34.044L16.082,17.832C16.082,3.891 6.549,2.659 -0.065,2.659L-13.488,2.659L-13.488,41.825L-21.399,41.825L-21.399,-45.586L-0.065,-45.586C17.703,-45.586 24.317,-40.528 24.317,-23.214L24.317,-21.593C24.317,-11.218 21.399,-4.15 11.867,-0.843C20.102,1.881 24.122,8.041 24.122,18.092L24.122,33.979C24.122,37.091 24.252,40.398 25.289,41.76L17.378,41.76C16.211,40.528 16.082,37.221 16.082,33.979L16.082,34.044Z" style="fill:rgb(7,110,127);fill-rule:nonzero;"/>
            </g>
            <g transform="matrix(1,0,0,1,520.315,572.358)">
                <path d="M0,-87.411L7.587,-87.411L39.296,-17.703L39.296,-87.411L46.688,-87.411L46.688,0L39.101,0L7.392,-69.708L7.392,0L0,0L0,-87.411Z" style="fill:rgb(7,110,127);fill-rule:nonzero;"/>
            </g>
        </g>
    </g>
</svg>
